<svg width="16" height="16" viewBox="0 0 16 16" fill="none" xmlns="http://www.w3.org/2000/svg">
<path fill-rule="evenodd" clip-rule="evenodd" d="M12 9C12 12.3137 9.31371 15 6 15C2.68629 15 0 12.3137 0 9C0 5.68629 2.68629 3 6 3C9.31371 3 12 5.68629 12 9ZM5.5 5.5C5.5 5.22386 5.72386 5 6 5C6.27614 5 6.5 5.22386 6.5 5.5V10.5C6.5 10.7761 6.27614 11 6 11C5.72386 11 5.5 10.7761 5.5 10.5V5.5ZM6 13C6.27614 13 6.5 12.7761 6.5 12.5C6.5 12.2239 6.27614 12 6 12C5.72386 12 5.5 12.2239 5.5 12.5C5.5 12.7761 5.72386 13 6 13Z" fill="white"/>
</svg>
