<svg width="12" height="16" viewBox="0 0 12 16" fill="none" xmlns="http://www.w3.org/2000/svg">
<path fill-rule="evenodd" clip-rule="evenodd" d="M11 10C11 12.7614 8.76142 15 6 15C3.23858 15 1 12.7614 1 10C1 7.23858 3.23858 5 6 5C8.76142 5 11 7.23858 11 10ZM12 10C12 13.3137 9.31371 16 6 16C2.68629 16 0 13.3137 0 10C0 6.68629 2.68629 4 6 4C9.31371 4 12 6.68629 12 10ZM7 10C7 10.5523 6.55228 11 6 11C5.44772 11 5 10.5523 5 10C5 9.44772 5.44772 9 6 9C6.55228 9 7 9.44772 7 10ZM8 10C8 11.1046 7.10457 12 6 12C4.89543 12 4 11.1046 4 10C4 8.89543 4.89543 8 6 8C7.10457 8 8 8.89543 8 10Z" fill="#FF8585"/>
</svg>
