<svg width="24" height="24" viewBox="0 0 24 24" fill="none" xmlns="http://www.w3.org/2000/svg">
<g opacity="0.6">
<path fill-rule="evenodd" clip-rule="evenodd" d="M18.5455 2.71429H5.45455C5.05288 2.71429 4.72727 3.03408 4.72727 3.42857V20.5714C4.72727 20.9659 5.05288 21.2857 5.45455 21.2857H18.5455C18.9471 21.2857 19.2727 20.9659 19.2727 20.5714V3.42857C19.2727 3.03408 18.9471 2.71429 18.5455 2.71429ZM5.45455 2C4.65122 2 4 2.63959 4 3.42857V20.5714C4 21.3604 4.65122 22 5.45455 22H18.5455C19.3488 22 20 21.3604 20 20.5714V3.42857C20 2.63959 19.3488 2 18.5455 2H5.45455ZM11.0749 5.63701C11.5022 4.96558 12.4978 4.96558 12.9251 5.63701L15.2493 9.2893C15.7034 10.0029 15.181 10.9286 14.3242 10.9286H9.67581C8.81898 10.9286 8.2966 10.0029 8.75072 9.2893L11.0749 5.63701ZM12.3084 6.01558C12.1659 5.79177 11.8341 5.79177 11.6916 6.01558L9.36745 9.66787C9.21608 9.90574 9.3902 10.2143 9.67581 10.2143H14.3242C14.6098 10.2143 14.7839 9.90574 14.6325 9.66787L12.3084 6.01558ZM14.5454 15.9286C14.5454 17.3093 13.4058 18.4286 12 18.4286C10.5942 18.4286 9.45454 17.3093 9.45454 15.9286C9.45454 14.5479 10.5942 13.4286 12 13.4286C13.4058 13.4286 14.5454 14.5479 14.5454 15.9286ZM15.2727 15.9286C15.2727 17.7038 13.8075 19.1429 12 19.1429C10.1925 19.1429 8.72726 17.7038 8.72726 15.9286C8.72726 14.1534 10.1925 12.7143 12 12.7143C13.8075 12.7143 15.2727 14.1534 15.2727 15.9286Z" fill="white"/>
</g>
</svg>
