<svg width="31" height="19" viewBox="0 0 31 19" fill="none" xmlns="http://www.w3.org/2000/svg">
<g opacity="0.2" clip-path="url(#clip0)">
<path d="M29.2519 1.04835C28.6692 0.530287 28.0217 0.141739 27.2448 0.0122231C26.2736 -0.117293 25.3024 0.530287 24.6679 0.983593C24.0205 1.4369 22.7256 2.60254 22.2206 3.05585C21.7155 3.50916 20.4077 3.76819 18.284 5.06335C16.1604 6.35851 7.87302 11.6428 7.87302 11.6428H10.0096L0.388471 16.6162H1.35965L0 17.6523C0.776942 17.8466 1.55388 17.7171 2.26608 17.3285V17.6523C2.26608 17.6523 13.7001 13.1322 15.8885 14.2978L14.5288 14.6864C14.6583 14.6864 16.7949 14.8159 16.7949 14.8159C16.9244 15.7225 17.4424 16.5644 18.2193 17.0177C19.5142 17.8595 19.5789 18.3776 19.5789 18.3776C19.5789 18.3776 18.9315 18.6366 18.9315 19.0252C20.1617 18.6366 21.4436 18.6366 22.609 19.0252C22.609 19.0252 22.5443 18.6366 21.6378 18.3776C20.7314 17.989 19.9545 17.4062 19.3718 16.5644C18.8538 15.852 18.6596 14.9454 18.9833 14.1165C19.307 13.2747 20.4077 12.8214 22.6608 11.6687C25.3024 10.3087 25.9499 9.28557 26.2736 8.44372C26.5973 7.60186 27.2448 6.06062 27.5038 5.28352C27.7627 4.57119 28.216 3.98836 28.7987 3.4703C29.5109 3.08175 30.2878 2.75796 31 2.49893C31.1165 2.53779 29.7051 1.37214 29.2519 1.04835Z" fill="white"/>
</g>
<defs>
<clipPath id="clip0">
<rect width="31" height="19" fill="white"/>
</clipPath>
</defs>
</svg>
