<svg width="44" height="44" viewBox="0 0 44 44" fill="none" xmlns="http://www.w3.org/2000/svg">
<circle opacity="0.6" cx="22" cy="22" r="22" fill="white"/>
<circle cx="22" cy="22" r="19" fill="#3241F4"/>
<path d="M23.4286 15L17.3686 29H14.1686L8.12859 15H11.6286L15.8886 25L20.2086 15H23.4286ZM29.1975 29.24C28.0908 29.24 27.0175 29.0933 25.9775 28.8C24.9508 28.4933 24.1242 28.1 23.4975 27.62L24.5975 25.18C25.1975 25.62 25.9108 25.9733 26.7375 26.24C27.5642 26.5067 28.3908 26.64 29.2175 26.64C30.1375 26.64 30.8175 26.5067 31.2575 26.24C31.6975 25.96 31.9175 25.5933 31.9175 25.14C31.9175 24.8067 31.7842 24.5333 31.5175 24.32C31.2642 24.0933 30.9308 23.9133 30.5175 23.78C30.1175 23.6467 29.5708 23.5 28.8775 23.34C27.8108 23.0867 26.9375 22.8333 26.2575 22.58C25.5775 22.3267 24.9908 21.92 24.4975 21.36C24.0175 20.8 23.7775 20.0533 23.7775 19.12C23.7775 18.3067 23.9975 17.5733 24.4375 16.92C24.8775 16.2533 25.5375 15.7267 26.4175 15.34C27.3108 14.9533 28.3975 14.76 29.6775 14.76C30.5708 14.76 31.4442 14.8667 32.2975 15.08C33.1508 15.2933 33.8975 15.6 34.5375 16L33.5375 18.46C32.2442 17.7267 30.9508 17.36 29.6575 17.36C28.7508 17.36 28.0775 17.5067 27.6375 17.8C27.2108 18.0933 26.9975 18.48 26.9975 18.96C26.9975 19.44 27.2442 19.8 27.7375 20.04C28.2442 20.2667 29.0108 20.4933 30.0375 20.72C31.1042 20.9733 31.9775 21.2267 32.6575 21.48C33.3375 21.7333 33.9175 22.1333 34.3975 22.68C34.8908 23.2267 35.1375 23.9667 35.1375 24.9C35.1375 25.7 34.9108 26.4333 34.4575 27.1C34.0175 27.7533 33.3508 28.2733 32.4575 28.66C31.5642 29.0467 30.4775 29.24 29.1975 29.24Z" fill="white"/>
</svg>
